HIERARCHY
ROOT Hips
{
 OFFSET 0.000000 0.000000 0.000000
 CHANNELS 6 Xposition Yposition Zposition Yrotation Xrotation Zrotation
 JOINT Chest
 {
  OFFSET 0.000000 9.585900 0.002600
  CHANNELS 3 Yrotation Xrotation Zrotation
  JOINT Chest2
  {
   OFFSET 0.000000 9.601200 -0.005300
   CHANNELS 3 Yrotation Xrotation Zrotation
   JOINT Chest3
   {
    OFFSET 0.000000 9.561800 0.000000
    CHANNELS 3 Yrotation Xrotation Zrotation
    JOINT Chest4
    {
     OFFSET 0.000000 9.552100 0.000000
     CHANNELS 3 Yrotation Xrotation Zrotation
     JOINT Neck
     {
      OFFSET 0.000000 14.453000 0.000000
      CHANNELS 3 Yrotation Xrotation Zrotation
      JOINT Head
      {
       OFFSET 0.000000 8.936500 -0.011300
       CHANNELS 3 Yrotation Xrotation Zrotation
       End Site
       {
        OFFSET 0.000000 17.073600 -0.006000
       }
      }
     }
     JOINT RightCollar
     {
      OFFSET -2.921100 9.558500 0.000000
      CHANNELS 3 Yrotation Xrotation Zrotation
      JOINT RightShoulder
      {
       OFFSET -13.519700 0.000000 0.000000
       CHANNELS 3 Yrotation Xrotation Zrotation
       JOINT RightElbow
       {
        OFFSET 0.000000 -29.696600 0.000000
        CHANNELS 3 Yrotation Xrotation Zrotation
        JOINT RightWrist
        {
         OFFSET 0.000000 -24.004700 0.000000
         CHANNELS 3 Yrotation Xrotation Zrotation
         End Site
         {
          OFFSET 0.000000 -17.728500 0.000000
         }
        }
       }
      }
     }
     JOINT LeftCollar
     {
      OFFSET 2.921100 9.558500 0.000000
      CHANNELS 3 Yrotation Xrotation Zrotation
      JOINT LeftShoulder
      {
       OFFSET 13.519700 0.000000 0.000000
       CHANNELS 3 Yrotation Xrotation Zrotation
       JOINT LeftElbow
       {
        OFFSET 0.000000 -29.696600 0.000000
        CHANNELS 3 Yrotation Xrotation Zrotation
        JOINT LeftWrist
        {
         OFFSET 0.000000 -24.004700 0.000000
         CHANNELS 3 Yrotation Xrotation Zrotation
         End Site
         {
          OFFSET 0.000000 -17.728500 0.000000
         }
        }
       }
      }
     }
    }
   }
  }
 }
 JOINT RightHip
 {
  OFFSET -7.771700 -0.012900 -0.001300
  CHANNELS 3 Yrotation Xrotation Zrotation
  JOINT RightKnee
  {
   OFFSET 0.000000 -40.869800 0.001200
   CHANNELS 3 Yrotation Xrotation Zrotation
   JOINT RightAnkle
   {
    OFFSET 0.000000 -39.717900 0.002100
    CHANNELS 3 Yrotation Xrotation Zrotation
    JOINT RightToe
    {
     OFFSET 0.000000 -4.965400 11.033500
     CHANNELS 3 Yrotation Xrotation Zrotation
     End Site
     {
      OFFSET 0.000000 -1.423100 5.872300
     }
    }
   }
  }
 }
 JOINT LeftHip
 {
  OFFSET 7.771700 -0.012900 -0.001300
  CHANNELS 3 Yrotation Xrotation Zrotation
  JOINT LeftKnee
  {
   OFFSET 0.000000 -40.869800 0.001200
   CHANNELS 3 Yrotation Xrotation Zrotation
   JOINT LeftAnkle
   {
    OFFSET 0.000000 -39.717900 0.002100
    CHANNELS 3 Yrotation Xrotation Zrotation
    JOINT LeftToe
    {
     OFFSET 0.000000 -4.965400 11.033500
     CHANNELS 3 Yrotation Xrotation Zrotation
     End Site
     {
      OFFSET 0.000000 -1.423100 5.872300
     }
    }
   }
  }
 }
}
MOTION
Frames: 8
Frame Time: 0.008333
-45.016520 57.913529 11.921996 178.756527 -51.605996 -3.592037 3.314465 22.930533 3.147142 1.705595 13.113693 1.610489 2.194373 16.406448 2.086765 1.710240 13.109839 1.611345 0.019750 15.331370 2.231833 -0.748381 -7.346453 4.158114 1.432357 4.387855 0.500609 -20.720029 -16.928505 -3.074815 -57.937135 -25.364741 134.949497 6.375083 8.034113 33.248294 -9.365053 2.104943 0.622940 15.824133 -8.592897 5.573990 64.101990 -31.141217 -133.943935 3.891352 -4.991633 -37.257859 4.039428 -19.692509 -3.173430 -33.869402 73.290211 -38.004131 5.773144 -13.899942 11.787519 -0.002567 0.000797 0.034687 -7.750744 -17.472232 5.064065 86.754902 81.922484 85.802336 1.074069 -21.618310 -18.042437 -0.011896 0.006001 0.001070
-45.018569 57.911713 11.921667 178.758017 -51.607740 -3.592445 3.315872 22.923809 3.147986 1.709242 13.112157 1.612141 2.194604 16.404171 2.090301 1.711213 13.110730 1.611633 0.025244 15.320748 2.234492 -0.757257 -7.334571 4.158943 1.448344 4.375460 0.506998 -20.834276 -16.976539 -2.975785 -57.898677 -25.156947 135.005720 6.131934 7.932335 33.191007 -9.362773 2.080603 0.624326 15.891376 -8.576545 5.530368 63.981313 -30.903734 -133.894898 4.262836 -5.168821 -37.072875 4.047276 -19.690566 -3.172664 -33.876242 73.292711 -38.012977 5.772175 -13.904628 11.790271 -0.003535 -0.000267 0.032996 -7.742394 -17.473652 5.067374 86.756435 81.921716 85.804991 1.066034 -21.617007 -18.037887 -0.011741 0.006159 0.001385
-45.019647 57.910107 11.921140 178.761915 -51.610956 -3.601903 3.326414 22.911349 3.159642 1.703869 13.118142 1.613550 2.204263 16.389275 2.094036 1.699664 13.129982 1.612942 0.035205 15.303224 2.236404 -0.756831 -7.346290 4.163782 1.462609 4.363203 0.512294 -20.934060 -17.028326 -2.876778 -57.873273 -24.976177 135.057840 5.918774 7.836033 33.150586 -9.363903 2.075723 0.625416 15.961070 -8.585822 5.485201 63.852182 -30.668003 -133.852180 4.601243 -5.331373 -36.911773 4.051626 -19.689463 -3.161706 -33.902073 73.292303 -38.036342 5.768592 -13.906323 11.789520 0.002270 -0.001230 0.032442 -7.729273 -17.473342 5.078708 86.750645 81.930077 85.812169 1.060781 -21.616884 -18.036157 -0.008328 0.005594 0.004057
-45.022547 57.909135 11.919850 178.771918 -51.619059 -3.606055 3.321189 22.913497 3.157867 1.702350 13.118922 1.613185 2.204812 16.385784 2.094689 1.703912 13.126363 1.613361 0.038822 15.282079 2.238679 -0.750783 -7.368168 4.165746 1.461776 4.370669 0.515143 -21.016924 -17.084683 -2.774609 -57.863948 -24.820437 135.110245 5.733040 7.749469 33.122990 -9.367936 2.079427 0.625355 16.022602 -8.596071 5.444601 63.711180 -30.429627 -133.810637 4.898445 -5.474847 -36.781681 4.055676 -19.679868 -3.164389 -33.918357 73.291726 -38.049208 5.761898 -13.909305 11.790445 0.010802 -0.000456 0.031291 -7.723965 -17.467511 5.077357 86.779713 81.923201 85.837181 1.046428 -21.620967 -18.023800 -0.007702 0.006593 0.002591
-45.025518 57.907676 11.918822 178.777940 -51.623777 -3.606979 3.319741 22.912281 3.158233 1.697711 13.123437 1.610375 2.206271 16.379056 2.096431 1.701824 13.120482 1.612666 0.040579 15.282066 2.239187 -0.749949 -7.366144 4.165202 1.478354 4.365653 0.522809 -21.104234 -17.125091 -2.685728 -57.866297 -24.691227 135.164805 5.565612 7.673063 33.105081 -9.362018 2.067752 0.627345 16.059121 -8.584722 5.417091 63.575875 -30.190290 -133.777981 5.155263 -5.597492 -36.683054 4.058944 -19.675628 -3.166608 -33.931023 73.292899 -38.064770 5.756430 -13.911544 11.797021 0.001517 -0.001820 0.025557 -7.719106 -17.465812 5.074630 86.815565 81.922980 85.872468 1.045425 -21.622184 -18.025751 -0.009540 0.005783 0.006837
-45.028697 57.905832 11.917990 178.783311 -51.625478 -3.605870 3.317105 22.911370 3.155842 1.698689 13.118456 1.610929 2.202323 16.382979 2.096396 1.701305 13.119152 1.611035 0.041330 15.275594 2.243152 -0.749058 -7.366336 4.162667 1.501614 4.353483 0.529524 -21.196295 -17.161170 -2.595704 -57.874395 -24.588574 135.216559 5.418166 7.604722 33.091443 -9.362375 2.069655 0.627196 16.071761 -8.586113 5.408158 63.463089 -29.954647 -133.767326 5.379421 -5.705364 -36.611936 4.065482 -19.680487 -3.171151 -33.956851 73.301535 -38.089877 5.748583 -13.915059 11.796932 0.002152 -0.003682 0.025184 -7.718345 -17.466157 5.069123 86.833704 81.922496 85.889965 1.045883 -21.625075 -18.027938 -0.009001 0.007862 0.009902
-45.032085 57.904279 11.916854 178.789336 -51.628974 -3.603243 3.313603 22.912765 3.151981 1.699356 13.112282 1.620731 2.194948 16.388773 2.087335 1.698598 13.115187 1.613895 0.043239 15.274041 2.242024 -0.749133 -7.377822 4.157214 1.526101 4.350750 0.529325 -21.281197 -17.196737 -2.504945 -57.889390 -24.512126 135.260245 5.297222 7.542974 33.082206 -9.358420 2.059626 0.615403 16.113719 -8.593212 5.382075 63.291368 -29.747644 -133.740570 5.569683 -5.796417 -36.567631 4.066015 -19.678101 -3.178869 -33.951635 73.313674 -38.091572 5.736618 -13.924954 11.798364 -0.000769 -0.003725 0.024766 -7.711776 -17.466839 5.062486 86.837953 81.928633 85.895501 1.046733 -21.625565 -18.024301 -0.007107 0.009002 0.010048
-45.033764 57.902708 11.915911 178.787686 -51.631261 -3.603952 3.316747 22.911370 3.161869 1.696775 13.113813 1.618411 2.195661 16.387140 2.094472 1.695842 13.116433 1.613136 0.039315 15.272933 2.233677 -0.751899 -7.391893 4.154584 1.550501 4.344682 0.523773 -21.359157 -17.224413 -2.419953 -57.920357 -24.459390 135.299930 5.200248 7.486800 33.082844 -9.362559 2.046876 0.601926 16.146205 -8.603757 5.358708 63.125475 -29.550539 -133.718082 5.718498 -5.865285 -36.552760 4.067512 -19.677154 -3.177581 -33.936649 73.322748 -38.079620 5.741857 -13.939232 11.791293 -0.002419 -0.001599 0.022847 -7.697562 -17.466630 5.073172 86.875276 81.941793 85.934852 1.041379 -21.633457 -18.014195 -0.002613 0.008811 0.009079
